<svg width="22345" height="22345" viewBox="0 0 22345 22345" fill="none" xmlns="http://www.w3.org/2000/svg">
<circle cx="11172.5" cy="11172.5" r="11172.1" fill="#1B1954"/>
<path d="M6146.46 5880.98H10268.1C10414.8 5880.98 10533.6 5999.84 10533.6 6146.48V10268.1C10533.6 10414.8 10414.8 10533.6 10268.1 10533.6H6146.46C5999.83 10533.6 5880.96 10414.8 5880.96 10268.1V6146.48C5880.96 5999.84 5999.83 5880.98 6146.46 5880.98Z" stroke="white" stroke-width="469"/>
<path d="M12076.9 5880.98H16198.6C16345.2 5880.98 16464.1 5999.84 16464.1 6146.48V10268.1C16464.1 10414.8 16345.2 10533.6 16198.6 10533.6H12076.9C11930.3 10533.6 11811.4 10414.8 11811.4 10268.1V6146.48C11811.4 5999.84 11930.3 5880.98 12076.9 5880.98Z" stroke="white" stroke-width="469"/>
<path d="M12076.9 11811.2H16198.6C16345.2 11811.2 16464.1 11930.1 16464.1 12076.7V16198.4C16464.1 16345 16345.2 16463.9 16198.6 16463.9H12076.9C11930.3 16463.9 11811.4 16345 11811.4 16198.4V12076.7C11811.4 11930.1 11930.3 11811.2 12076.9 11811.2Z" stroke="white" stroke-width="469"/>
<path d="M6146.46 11811.2H10268.1C10414.8 11811.2 10533.6 11930.1 10533.6 12076.7V16198.4C10533.6 16345 10414.8 16463.9 10268.1 16463.9H6146.46C5999.83 16463.9 5880.96 16345 5880.96 16198.4V12076.7C5880.96 11930.1 5999.83 11811.2 6146.46 11811.2Z" stroke="white" stroke-width="469"/>
</svg>
