<svg width="22346" height="22345" viewBox="0 0 22346 22345" fill="none" xmlns="http://www.w3.org/2000/svg">
<circle cx="11172.9" cy="11172.8" r="11172.1" fill="#1B1954"/>
<path d="M14348.4 8195.72V5220.58C14348.4 5219.47 14347.5 5218.58 14346.4 5218.58H5815.95C5814.85 5218.58 5813.95 5219.47 5813.95 5220.58V17125.2C5813.95 17126.3 5814.85 17127.2 5815.95 17127.2H14346.4C14347.5 17127.2 14348.4 17126.3 14348.4 17125.2V14150" stroke="white" stroke-width="549"/>
<path d="M16725.8 11367C16833 11259.8 16833 11086 16725.8 10978.8L14978.9 9231.9C14871.7 9124.7 14697.9 9124.7 14590.7 9231.9C14483.5 9339.1 14483.5 9512.9 14590.7 9620.1L16143.5 11172.9L14590.7 12725.7C14483.5 12832.9 14483.5 13006.7 14590.7 13113.9C14697.9 13221.1 14871.7 13221.1 14978.9 13113.9L16725.8 11367ZM8195.71 11447.4H16531.7V10898.4H8195.71V11447.4Z" fill="white"/>
</svg>
