<svg width="22345" height="22346" viewBox="0 0 22345 22346" fill="none" xmlns="http://www.w3.org/2000/svg">
<circle cx="11172.5" cy="11172.9" r="11172.1" fill="#1B1954"/>
<path d="M8193.47 6714.8H6917.69C6917.14 6714.8 6916.69 6715.25 6916.69 6715.8V17119.5C6916.69 17120.1 6917.14 17120.5 6917.69 17120.5H15427.6C15428.1 17120.5 15428.6 17120.1 15428.6 17119.5V6715.8C15428.6 6715.25 15428.1 6714.8 15427.6 6714.8H14151.8" stroke="#FFF733" stroke-width="446"/>
<rect x="8619.08" y="6076.46" width="5107.12" height="1276.78" fill="#FFF733"/>
<rect x="8619.08" y="6076.46" width="5107.12" height="1276.78" fill="#FFF733"/>
<rect x="8619.08" y="6076.46" width="5107.12" height="1276.78" fill="#FFF733"/>
<rect x="8619.08" y="6076.46" width="5107.12" height="1276.78" fill="#FFF733"/>
<rect x="9895.97" y="5225.27" width="2553.56" height="1276.78" fill="#FFF733"/>
<rect x="9895.97" y="5225.27" width="2553.56" height="1276.78" fill="#FFF733"/>
<rect x="9895.97" y="5225.27" width="2553.56" height="1276.78" fill="#FFF733"/>
<rect x="9895.97" y="5225.27" width="2553.56" height="1276.78" fill="#FFF733"/>
<rect x="10266.8" y="8968.92" width="3287.06" height="268.944" fill="#FFF733"/>
<rect x="10266.8" y="8968.92" width="3287.06" height="268.944" fill="#FFF733"/>
<rect x="10266.8" y="8968.92" width="3287.06" height="268.944" fill="#FFF733"/>
<rect x="10266.8" y="8968.92" width="3287.06" height="268.944" fill="#FFF733"/>
<rect x="10266.8" y="8968.92" width="3287.06" height="268.944" stroke="#FFF733"/>
<circle cx="9257.47" cy="9103.39" r="637.89" fill="#FFF733" stroke="#FFF733"/>
<rect x="10266.8" y="10782.1" width="3287.06" height="268.944" fill="#FFF733"/>
<rect x="10266.8" y="10782.1" width="3287.06" height="268.944" fill="#FFF733"/>
<rect x="10266.8" y="10782.1" width="3287.06" height="268.944" fill="#FFF733"/>
<rect x="10266.8" y="10782.1" width="3287.06" height="268.944" fill="#FFF733"/>
<rect x="10266.8" y="10782.1" width="3287.06" height="268.944" stroke="#FFF733"/>
<circle cx="9257.47" cy="10916.5" r="637.89" fill="#FFF733" stroke="#FFF733"/>
<rect x="10266.8" y="12595.1" width="3287.06" height="268.944" fill="#FFF733"/>
<rect x="10266.8" y="12595.1" width="3287.06" height="268.944" fill="#FFF733"/>
<rect x="10266.8" y="12595.1" width="3287.06" height="268.944" fill="#FFF733"/>
<rect x="10266.8" y="12595.1" width="3287.06" height="268.944" fill="#FFF733"/>
<rect x="10266.8" y="12595.1" width="3287.06" height="268.944" stroke="#FFF733"/>
<circle cx="9257.47" cy="12729.6" r="637.89" fill="#FFF733" stroke="#FFF733"/>
<rect x="10266.8" y="14408.1" width="3287.06" height="268.944" fill="#FFF733"/>
<rect x="10266.8" y="14408.1" width="3287.06" height="268.944" fill="#FFF733"/>
<rect x="10266.8" y="14408.1" width="3287.06" height="268.944" fill="#FFF733"/>
<rect x="10266.8" y="14408.1" width="3287.06" height="268.944" fill="#FFF733"/>
<rect x="10266.8" y="14408.1" width="3287.06" height="268.944" stroke="#FFF733"/>
<circle cx="9257.47" cy="14542.6" r="637.89" fill="#FFF733" stroke="#FFF733"/>
</svg>
