<svg width="12" height="16" viewBox="0 0 12 16" fill="none" xmlns="http://www.w3.org/2000/svg">
<path d="M2.55407 2.57568H1.9541C1.40182 2.57568 0.954102 3.0234 0.954102 3.57568V14.6154C0.954102 15.1677 1.40182 15.6154 1.9541 15.6154H10.6206C11.1729 15.6154 11.6206 15.1677 11.6206 14.6154V3.57568C11.6206 3.0234 11.1729 2.57568 10.6206 2.57568H10.0206" stroke="black" stroke-width="0.5"/>
<rect x="3.4874" y="2.17563" width="5.5999" height="0.799985" fill="black"/>
<rect x="3.4874" y="2.17563" width="5.5999" height="0.799985" fill="black"/>
<rect x="3.4874" y="2.17563" width="5.5999" height="0.799985" fill="black"/>
<rect x="3.4874" y="2.17563" width="5.5999" height="0.799985" fill="black"/>
<rect x="3.4874" y="2.17563" width="5.5999" height="0.799985" stroke="black" stroke-width="0.799985"/>
<rect x="5.08737" y="1.10898" width="2.39996" height="0.799985" fill="black"/>
<rect x="5.08737" y="1.10898" width="2.39996" height="0.799985" fill="black"/>
<rect x="5.08737" y="1.10898" width="2.39996" height="0.799985" fill="black"/>
<rect x="5.08737" y="1.10898" width="2.39996" height="0.799985" fill="black"/>
<rect x="5.08737" y="1.10898" width="2.39996" height="0.799985" stroke="black" stroke-width="0.799985"/>
<rect x="5.2363" y="5.48423" width="3.95123" height="0.169138" fill="black"/>
<rect x="5.2363" y="5.48423" width="3.95123" height="0.169138" fill="black"/>
<rect x="5.2363" y="5.48423" width="3.95123" height="0.169138" fill="black"/>
<rect x="5.2363" y="5.48423" width="3.95123" height="0.169138" fill="black"/>
<rect x="5.2363" y="5.48423" width="3.95123" height="0.169138" stroke="black" stroke-width="0.169138"/>
<circle cx="3.88739" cy="5.56878" r="0.5" fill="black" stroke="black" stroke-width="0.599971"/>
<rect x="5.2363" y="7.75644" width="3.95123" height="0.169138" fill="black"/>
<rect x="5.2363" y="7.75644" width="3.95123" height="0.169138" fill="black"/>
<rect x="5.2363" y="7.75644" width="3.95123" height="0.169138" fill="black"/>
<rect x="5.2363" y="7.75644" width="3.95123" height="0.169138" fill="black"/>
<rect x="5.2363" y="7.75644" width="3.95123" height="0.169138" stroke="black" stroke-width="0.169138"/>
<circle cx="3.88739" cy="7.841" r="0.5" fill="black" stroke="black" stroke-width="0.599971"/>
<rect x="5.2363" y="10.0284" width="3.95123" height="0.169138" fill="black"/>
<rect x="5.2363" y="10.0284" width="3.95123" height="0.169138" fill="black"/>
<rect x="5.2363" y="10.0284" width="3.95123" height="0.169138" fill="black"/>
<rect x="5.2363" y="10.0284" width="3.95123" height="0.169138" fill="black"/>
<rect x="5.2363" y="10.0284" width="3.95123" height="0.169138" stroke="black" stroke-width="0.169138"/>
<circle cx="3.88739" cy="10.113" r="0.5" fill="black" stroke="black" stroke-width="0.599971"/>
<rect x="5.2363" y="12.3004" width="3.95123" height="0.169138" fill="black"/>
<rect x="5.2363" y="12.3004" width="3.95123" height="0.169138" fill="black"/>
<rect x="5.2363" y="12.3004" width="3.95123" height="0.169138" fill="black"/>
<rect x="5.2363" y="12.3004" width="3.95123" height="0.169138" fill="black"/>
<rect x="5.2363" y="12.3004" width="3.95123" height="0.169138" stroke="black" stroke-width="0.169138"/>
<circle cx="3.88739" cy="12.3849" r="0.5" fill="black" stroke="black" stroke-width="0.599971"/>
</svg>
